<svg width="66" height="122" viewBox="0 0 66 122" fill="none" xmlns="http://www.w3.org/2000/svg">
<path d="M6 13C19.7059 -2.76919 45.7941 -2.76919 59.5 13C71.4126 26.7059 59.5 59.5 59.5 59.5L32.5 120.5L6 59.5C6 59.5 -5.91263 26.7059 6 13Z" fill="#138D80" stroke="#102514"/>
<path d="M54.5 31.7922C54.5 35.5419 52.6858 38.6545 49.9886 41.9388C48.8916 43.2745 47.662 44.6232 46.3613 46.0499C46.0624 46.3779 45.7596 46.7099 45.4539 47.0469C43.8229 48.8445 42.1158 50.7718 40.4774 52.9209C37.1967 57.2241 34.1896 62.4187 32.5757 69.2887C31.1141 75.5108 30.8011 83.0827 32.4371 92.5812C22.6936 75.0303 17.7154 62.6562 15.1697 53.3631C12.5 43.6174 12.5 37.2432 12.5 31.793V31.7922C12.5 21.1756 21.8622 12.5 33.5 12.5C45.1377 12.5 54.5 21.1756 54.5 31.7922Z" fill="white" stroke="black"/>
</svg>
